<svg viewBox="0 0 48 48" fill="none" xmlns="http://www.w3.org/2000/svg">
  <rect x="1" y="1" width="46" height="46" rx="5" fill="#0F6CBD"/>
  <rect x="1" y="1" width="46" height="46" rx="5" stroke="rgba(255,255,255,0.22)" stroke-width="1" fill="none"/>
  <rect x="5" y="5" width="38" height="38" rx="2" stroke="rgba(255,255,255,0.12)" stroke-width="0.75" fill="none"/>
  <path d="M13.5 31.5 L17.25 17.5 L21 31.5 Z M14.85 26.25 H19.65" fill="white" fill-rule="evenodd"/>
  <path d="M29.75 17.75 C26.75 17.75 25.25 19.15 25.25 20.85 C25.25 22.55 26.65 23.15 28.45 23.65 C30.45 24.2 31.75 24.85 31.75 26.65 C31.75 28.85 29.55 30.25 27 30.25 C25.15 30.25 23.55 29.65 22.5 28.55 L23.85 27.35 C24.65 28.15 25.85 28.65 27.05 28.65 C28.55 28.65 29.55 27.75 29.55 26.55 C29.55 25.15 28.15 24.55 26.35 24.05 C24.35 23.5 23.25 22.65 23.25 21 C23.25 19.05 25.15 17.75 27.85 17.75 C29.35 17.75 30.65 18.25 31.55 19.05 L30.35 20.45 C29.65 19.75 28.75 17.75 29.75 17.75 Z" fill="white"/>
  <rect x="10" y="35.5" width="28" height="1.25" rx="0.5" fill="#10B981" opacity="0.85"/>
</svg>
